<svg width="28" height="28" viewBox="0 0 28 28" fill="none" xmlns="http://www.w3.org/2000/svg">
<g clip-path="url(#clip0_28_689)">
<path d="M17.2993 9.04938L10.7007 15.6492C10.5892 15.7568 10.5003 15.8856 10.4392 16.0279C10.3781 16.1702 10.3459 16.3233 10.3445 16.4782C10.3432 16.6332 10.3727 16.7868 10.4314 16.9302C10.49 17.0735 10.5767 17.2038 10.6862 17.3133C10.7957 17.4229 10.926 17.5095 11.0694 17.5682C11.2128 17.6268 11.3664 17.6563 11.5213 17.655C11.6762 17.6537 11.8293 17.6215 11.9716 17.5603C12.114 17.4992 12.2427 17.4103 12.3503 17.2989L18.9502 10.7002C19.6066 10.0438 19.9754 9.15346 19.9754 8.22513C19.9754 7.29679 19.6066 6.40648 18.9502 5.75004C18.2937 5.09361 17.4034 4.72483 16.4751 4.72483C15.5467 4.72483 14.6564 5.09361 14 5.75004L7.40016 12.3499C6.84724 12.889 6.40689 13.5326 6.10464 14.2433C5.80239 14.9539 5.64426 15.7175 5.63942 16.4898C5.63458 17.262 5.78313 18.0275 6.07645 18.7419C6.36977 19.4563 6.80203 20.1054 7.34814 20.6514C7.89425 21.1974 8.54335 21.6296 9.25779 21.9228C9.97222 22.216 10.7378 22.3645 11.51 22.3595C12.2823 22.3546 13.0458 22.1963 13.7565 21.894C14.4671 21.5916 15.1106 21.1512 15.6497 20.5982L22.2495 13.9995L23.8992 15.6492L17.2993 22.249C16.5409 23.0074 15.6406 23.609 14.6497 24.0194C13.6589 24.4299 12.5968 24.6411 11.5243 24.6411C10.4518 24.6411 9.38979 24.4299 8.39891 24.0194C7.40804 23.609 6.50771 23.0074 5.74932 22.249C4.99094 21.4907 4.38936 20.5903 3.97892 19.5995C3.56849 18.6086 3.35724 17.5466 3.35724 16.474C3.35724 15.4015 3.56849 14.3395 3.97892 13.3486C4.38936 12.3578 4.99094 11.4574 5.74932 10.699L12.3503 4.10038C13.4505 3.03779 14.924 2.44982 16.4535 2.46311C17.983 2.4764 19.446 3.08989 20.5276 4.17144C21.6091 5.25298 22.2226 6.71606 22.2359 8.24554C22.2492 9.77502 21.6612 11.2485 20.5987 12.3487L14 18.9509C13.6749 19.2759 13.2889 19.5337 12.8642 19.7096C12.4394 19.8855 11.9842 19.976 11.5245 19.9759C11.0648 19.9759 10.6096 19.8853 10.1849 19.7093C9.76016 19.5333 9.37427 19.2754 9.04924 18.9503C8.72421 18.6252 8.46639 18.2392 8.29051 17.8145C8.11464 17.3897 8.02414 16.9345 8.0242 16.4748C8.02425 16.0151 8.11485 15.5599 8.29083 15.1352C8.46681 14.7105 8.72471 14.3246 9.04982 13.9995L15.6497 7.39971L17.2993 9.04938Z" fill="#A6ADB5"/>
</g>
<defs>
<clipPath id="clip0_28_689">
<rect width="28" height="28" fill="white"/>
</clipPath>
</defs>
</svg>
