<svg width="32" height="30" viewBox="0 0 32 30" fill="none" xmlns="http://www.w3.org/2000/svg">
<g opacity="0.4" clip-path="url(#clip0_19_6437)">
<path d="M25.378 16.1168C25.4303 15.7195 25.4695 15.3221 25.4695 14.9C25.4695 14.4778 25.4303 14.0805 25.378 13.6831L28.1339 11.6344C28.3821 11.4482 28.4474 11.1129 28.2907 10.8397L25.6784 6.54361C25.5217 6.27045 25.169 6.17112 24.8817 6.27045L21.6295 7.51211C20.9503 7.01544 20.2189 6.6057 19.4221 6.29528L18.9258 3.00489C18.8866 2.7069 18.6123 2.4834 18.2858 2.4834H13.0613C12.7348 2.4834 12.4605 2.7069 12.4213 3.00489L11.925 6.29528C11.1283 6.6057 10.3969 7.02786 9.71767 7.51211L6.46544 6.27045C6.16503 6.1587 5.82544 6.27045 5.66871 6.54361L3.05647 10.8397C2.88668 11.1129 2.96505 11.4482 3.21321 11.6344L5.96912 13.6831C5.91687 14.0805 5.87769 14.4902 5.87769 14.9C5.87769 15.3097 5.91687 15.7195 5.96912 16.1168L3.21321 18.1655C2.96505 18.3518 2.89974 18.687 3.05647 18.9602L5.66871 23.2563C5.82544 23.5295 6.1781 23.6288 6.46544 23.5295L9.71767 22.2878C10.3969 22.7845 11.1283 23.1942 11.925 23.5046L12.4213 26.795C12.4605 27.093 12.7348 27.3165 13.0613 27.3165H18.2858C18.6123 27.3165 18.8866 27.093 18.9258 26.795L19.4221 23.5046C20.2189 23.1942 20.9503 22.7721 21.6295 22.2878L24.8817 23.5295C25.1821 23.6412 25.5217 23.5295 25.6784 23.2563L28.2907 18.9602C28.4474 18.687 28.3821 18.3518 28.1339 18.1655L25.378 16.1168ZM15.6736 19.2458C13.1528 19.2458 11.1022 17.2964 11.1022 14.9C11.1022 12.5036 13.1528 10.5542 15.6736 10.5542C18.1944 10.5542 20.245 12.5036 20.245 14.9C20.245 17.2964 18.1944 19.2458 15.6736 19.2458Z" fill="black"/>
</g>
<defs>
<clipPath id="clip0_19_6437">
<rect width="31.3468" height="29.7997" fill="white"/>
</clipPath>
</defs>
</svg>
