<svg width="20" height="20" viewBox="0 0 20 20" fill="none" xmlns="http://www.w3.org/2000/svg">
<path d="M12.825 4.34157L14 6.69157C14.1583 7.01657 14.5833 7.3249 14.9417 7.39157L17.0667 7.74157C18.425 7.96657 18.7417 8.9499 17.7667 9.93324L16.1083 11.5916C15.8333 11.8666 15.675 12.4082 15.7667 12.7999L16.2417 14.8499C16.6167 16.4666 15.75 17.0999 14.325 16.2499L12.3333 15.0666C11.975 14.8499 11.375 14.8499 11.0167 15.0666L9.025 16.2499C7.6 17.0916 6.73334 16.4666 7.10834 14.8499L7.58334 12.7999C7.65834 12.3999 7.5 11.8582 7.225 11.5832L5.56667 9.9249C4.59167 8.9499 4.90834 7.96657 6.26667 7.73324L8.39167 7.38324C8.75 7.3249 9.175 7.00824 9.33334 6.68324L10.5083 4.33324C11.15 3.06657 12.1833 3.06657 12.825 4.34157Z" fill="#FFEC70"/>
<path d="M6.66666 4.7915H1.66666C1.32499 4.7915 1.04166 4.50817 1.04166 4.1665C1.04166 3.82484 1.32499 3.5415 1.66666 3.5415H6.66666C7.00832 3.5415 7.29166 3.82484 7.29166 4.1665C7.29166 4.50817 7.00832 4.7915 6.66666 4.7915Z" fill="#FFEC70"/>
<path d="M4.16666 16.4585H1.66666C1.32499 16.4585 1.04166 16.1752 1.04166 15.8335C1.04166 15.4918 1.32499 15.2085 1.66666 15.2085H4.16666C4.50832 15.2085 4.79166 15.4918 4.79166 15.8335C4.79166 16.1752 4.50832 16.4585 4.16666 16.4585Z" fill="#FFEC70"/>
<path d="M2.49999 10.625H1.66666C1.32499 10.625 1.04166 10.3417 1.04166 10C1.04166 9.65833 1.32499 9.375 1.66666 9.375H2.49999C2.84166 9.375 3.12499 9.65833 3.12499 10C3.12499 10.3417 2.84166 10.625 2.49999 10.625Z" fill="#FFEC70"/>
</svg>
