<svg width="20" height="20" viewBox="0 0 20 20" fill="none" xmlns="http://www.w3.org/2000/svg">
<path d="M12.825 4.34157L14 6.69157C14.1583 7.01657 14.5833 7.3249 14.9416 7.39157L17.0666 7.74157C18.425 7.96657 18.7416 8.9499 17.7666 9.93324L16.1083 11.5916C15.8333 11.8666 15.675 12.4082 15.7666 12.7999L16.2416 14.8499C16.6166 16.4666 15.75 17.0999 14.325 16.2499L12.3333 15.0666C11.975 14.8499 11.375 14.8499 11.0166 15.0666L9.02497 16.2499C7.59997 17.0916 6.73331 16.4666 7.10831 14.8499L7.58331 12.7999C7.65831 12.3999 7.49997 11.8582 7.22497 11.5832L5.56664 9.9249C4.59164 8.9499 4.90831 7.96657 6.26664 7.73324L8.39164 7.38324C8.74997 7.3249 9.17497 7.00824 9.33331 6.68324L10.5083 4.33324C11.15 3.06657 12.1833 3.06657 12.825 4.34157Z" fill="#FFF8C9"/>
<path d="M6.66669 4.7915H1.66669C1.32502 4.7915 1.04169 4.50817 1.04169 4.1665C1.04169 3.82484 1.32502 3.5415 1.66669 3.5415H6.66669C7.00835 3.5415 7.29169 3.82484 7.29169 4.1665C7.29169 4.50817 7.00835 4.7915 6.66669 4.7915Z" fill="#FFF8C9"/>
<path d="M4.16669 16.4585H1.66669C1.32502 16.4585 1.04169 16.1752 1.04169 15.8335C1.04169 15.4918 1.32502 15.2085 1.66669 15.2085H4.16669C4.50835 15.2085 4.79169 15.4918 4.79169 15.8335C4.79169 16.1752 4.50835 16.4585 4.16669 16.4585Z" fill="#FFF8C9"/>
<path d="M2.50002 10.625H1.66669C1.32502 10.625 1.04169 10.3417 1.04169 10C1.04169 9.65833 1.32502 9.375 1.66669 9.375H2.50002C2.84169 9.375 3.12502 9.65833 3.12502 10C3.12502 10.3417 2.84169 10.625 2.50002 10.625Z" fill="#FFF8C9"/>
</svg>
