<svg width="37" height="37" viewBox="0 0 37 37" fill="none" xmlns="http://www.w3.org/2000/svg">
<path d="M32.3749 10.3755C32.3441 10.3755 32.2978 10.3755 32.2516 10.3755C24.0962 9.5584 15.9562 9.25007 7.89323 10.0671L4.74823 10.3755C4.10073 10.4371 3.53032 9.97465 3.46865 9.32715C3.40698 8.67965 3.86948 8.12465 4.50157 8.06298L7.64657 7.75465C15.8482 6.92215 24.1578 7.2459 32.4828 8.06298C33.1149 8.12465 33.5774 8.69507 33.5157 9.32715C33.4695 9.9284 32.9607 10.3755 32.3749 10.3755Z" fill="#292D32"/>
<path d="M13.1042 8.8185C13.0425 8.8185 12.9808 8.8185 12.9038 8.80308C12.2871 8.69516 11.8554 8.09391 11.9633 7.47725L12.3025 5.45766C12.5492 3.97766 12.8883 1.92725 16.4804 1.92725H20.5196C24.1271 1.92725 24.4663 4.05475 24.6975 5.47308L25.0367 7.47725C25.1446 8.10933 24.7129 8.71058 24.0963 8.80308C23.4642 8.911 22.8629 8.47933 22.7704 7.86266L22.4313 5.8585C22.2154 4.51725 22.1692 4.25516 20.535 4.25516H16.4958C14.8617 4.25516 14.8308 4.471 14.5996 5.84308L14.245 7.84725C14.1525 8.41766 13.6592 8.8185 13.1042 8.8185Z" fill="#292D32"/>
<path d="M23.4487 35.0728H13.5512C8.17078 35.0728 7.95495 32.0974 7.78536 29.6924L6.78328 14.1678C6.73703 13.5358 7.23036 12.9808 7.86245 12.9345C8.50995 12.9037 9.04953 13.3816 9.09578 14.0137L10.0979 29.5383C10.2674 31.8816 10.3291 32.7603 13.5512 32.7603H23.4487C26.6862 32.7603 26.7479 31.8816 26.902 29.5383L27.9041 14.0137C27.9504 13.3816 28.5054 12.9037 29.1374 12.9345C29.7695 12.9808 30.2629 13.5203 30.2166 14.1678L29.2145 29.6924C29.0449 32.0974 28.8291 35.0728 23.4487 35.0728Z" fill="#292D32"/>
<path d="M21.0593 26.5938H15.9255C15.2935 26.5938 14.7693 26.0696 14.7693 25.4375C14.7693 24.8054 15.2935 24.2812 15.9255 24.2812H21.0593C21.6914 24.2812 22.2155 24.8054 22.2155 25.4375C22.2155 26.0696 21.6914 26.5938 21.0593 26.5938Z" fill="#292D32"/>
<path d="M22.3541 20.4272H14.6458C14.0137 20.4272 13.4895 19.9031 13.4895 19.271C13.4895 18.6389 14.0137 18.1147 14.6458 18.1147H22.3541C22.9862 18.1147 23.5103 18.6389 23.5103 19.271C23.5103 19.9031 22.9862 20.4272 22.3541 20.4272Z" fill="#292D32"/>
</svg>
